<?xml version="1.0" encoding="utf-8"?>
<!DOCTYPE svg PUBLIC "-//W3C//DTD SVG 1.0//EN" "http://www.w3.org/TR/2001/REC-SVG-20010904/DTD/svg10.dtd">
<svg version="1.0" xmlns="http://www.w3.org/2000/svg" width="1254px" height="1254px" viewBox="0 0 1254 1254" preserveAspectRatio="xMidYMid meet">
  <rect width="1254" height="1254" fill="#3e3eec" />
 <g fill="#f7f7f4">
  <path d="M766 1103.1 c-15.6 -3.8 -27.6 -7.3 -39.5 -11.6 -55.5 -19.9 -99.4 -45 -137 -78.3 -3.8 -3.5 -7.1 -5.9 -7.3 -5.4 -0.1 0.5 1.3 5.4 3.3 10.8 1.9 5.4 3.5 11.4 3.5 13.2 0 2.9 -0.3 3.2 -3.1 3.2 -8.5 0 -38.3 -26.8 -57.7 -52 -3.6 -4.7 -6.9 -8.9 -7.4 -9.5 -0.8 -0.9 1.4 7.3 3.3 12.2 0.5 1.4 0.9 4 0.9 5.9 0 3.2 -0.2 3.4 -3.4 3.4 -3.6 0 -9.3 -4.2 -38.1 -28.4 -37 -31.3 -63.4 -50.1 -84 -60.1 -31.5 -15.4 -61.9 -17.6 -93 -7 -5.7 1.9 -11.7 3.5 -13.4 3.5 -2.8 0 -3.1 -0.3 -3.1 -3.1 0 -3.9 5.5 -14.8 12.6 -25.2 l5.4 -7.8 -5.1 2.8 c-8.9 5 -21.2 14.8 -30.7 24.7 -7.6 7.9 -9.8 9.6 -12.2 9.6 l-3 0 0 -7.1 c0 -21.2 10.2 -48 26.5 -69.3 l2.9 -3.9 -5.4 2.8 c-3 1.5 -8.7 5 -12.6 7.6 -4.8 3.4 -8 4.9 -10.2 4.9 -3 0 -3.2 -0.2 -3.2 -3.7 0.1 -9.6 13.5 -31.5 29.4 -48.1 10.1 -10.6 21.9 -20.5 35.3 -29.9 l7.2 -5 -13.7 -0.6 c-13.1 -0.6 -26.2 -2.9 -32.5 -5.8 -2.1 -1 -2.7 -1.9 -2.7 -4.5 0 -2.8 0.4 -3.3 3.2 -4 10 -2.1 23.9 -8 34.8 -14.7 18.8 -11.5 39.6 -31.8 53 -51.7 l4.4 -6.4 -6.4 4.9 c-3.4 2.8 -9 8 -12.4 11.7 -5.1 5.7 -6.6 6.8 -9.3 6.8 -3.2 0 -3.3 -0.1 -3.3 -4.4 0 -6.6 4.3 -21.9 9.2 -33.2 6.4 -14.6 15.4 -29.1 26.3 -42.6 5.2 -6.5 9.2 -11.8 8.8 -11.8 -2.2 0 -22 10.9 -28.1 15.5 -5.6 4.2 -8.2 5.5 -10.8 5.5 -3.1 0 -3.4 -0.3 -3.4 -2.9 0 -7.5 11.7 -28.7 23.5 -42.5 8.2 -9.4 23 -22.5 35.3 -30.9 9 -6.3 10.2 -7.5 10.2 -10 0 -4.9 9.1 -15.5 23.7 -27.8 l4.2 -3.5 -3.6 -4.4 c-6.9 -8.7 -17.6 -25.6 -23.5 -37.5 -13.8 -27.4 -22.4 -55.9 -27 -88.5 -1.4 -10.3 -1.8 -53.6 -0.5 -58.2 1.1 -4.3 5.1 -3.7 13.8 2 38 24.9 81 45 143.9 67.1 19.3 6.8 18.7 6.7 15 2.1 -1.8 -2.3 -3 -5 -3 -6.8 0 -2.7 0.5 -3.2 7.8 -6.1 15.6 -6.6 36.2 -19.3 54.3 -33.9 48.6 -39.1 70.6 -49.3 112.1 -52.2 31.8 -2.3 29.1 -0.4 98.5 -67.4 38.4 -36.9 61.3 -56.5 73.1 -62.3 5.2 -2.6 6.6 -2.8 17.2 -2.8 9.9 0 12.1 0.3 15.5 2.2 5.8 3.1 10 7.9 13.4 15.3 3.9 8.3 5.1 14.8 5.1 27.1 l0 9.9 5 8.8 c10.1 17.9 13.6 32.1 12.7 52.7 -0.9 20.5 -3.3 27.4 -21 59.1 -11.4 20.5 -17.2 32.7 -21.1 44.4 -2.4 7.4 -4.7 18 -3.9 18 1.1 0 28.7 -14.3 35.8 -18.5 4.3 -2.5 11.6 -7.5 16.1 -11.1 10.8 -8.4 13.3 -8.6 18.7 -1.2 4.8 6.5 10 17.5 12.2 25.3 2.6 9.5 3.1 26.5 1.1 36.6 -4.3 20.9 -12.6 30.2 -44.1 48.6 -16.1 9.5 -23.5 15 -33.1 24.8 -27.1 27.6 -41.9 71.3 -39.9 117.8 l0.7 15.7 -3.4 0 c-3.1 0 -4.5 -1 -11.8 -8.6 l-8.3 -8.7 0.6 9.4 c1.4 19.2 7.4 39.1 19.8 64.6 11.8 24.3 15.9 35.3 15.9 42.5 0 2.6 -0.3 2.8 -3.9 2.8 -2.3 0 -4.4 -0.6 -5.2 -1.6 -1.6 -2 -14.8 -12.2 -24.1 -18.8 l-6.8 -4.7 5.9 12.3 c10.9 22.7 17.3 43.2 20.7 65.9 1.9 13.2 1.6 47.4 -0.6 60.2 l-1.4 7.7 -3.5 -0.1 c-3.4 0 -3.8 -0.3 -6.5 -6.1 -3.2 -6.8 -12.7 -21.2 -18.1 -27.3 l-3.4 -4 2 6.7 c6.9 23.1 9.9 50.9 8 73.9 -1.6 20.7 -5.1 34.8 -12.3 51 -2.9 6.5 -3.3 6.9 -6.3 6.9 -3.2 0 -3.3 -0.1 -4.8 -6.9 -0.9 -3.8 -3.1 -10.7 -4.9 -15.3 l-3.3 -8.3 -0.6 12 c-1.9 35.2 -11.9 70.4 -26.5 93.3 -3 4.6 -3.8 5.2 -6.7 5.2 l-3.4 0 -0.6 -9.2 c-0.8 -13.2 -1.6 -14.5 -3.8 -6.2 -0.9 3.8 -3.8 12.3 -6.2 18.9 -8.9 23.6 -10 40.4 -3.9 58.1 1.8 5 3.2 10.3 3.2 11.8 0 2.5 -0.2 2.6 -5.2 2.5 -2.9 0 -10.5 -1.3 -16.8 -2.8z"/>
 </g>
</svg>